<svg width="165" height="165" viewBox="0 0 165 165" fill="none" xmlns="http://www.w3.org/2000/svg">
<path d="M137.5 41.25V82.5H27.5" stroke="#414141" stroke-width="8" stroke-linecap="round" stroke-linejoin="round"/>
<path d="M82.5 41.25V123.75" stroke="#414141" stroke-width="8" stroke-linecap="round" stroke-linejoin="round"/>
<path d="M27.5 41.25V123.75" stroke="#414141" stroke-width="8" stroke-linecap="round" stroke-linejoin="round"/>
<path d="M151.25 27.5C151.25 31.1467 149.801 34.6441 147.223 37.2227C144.644 39.8013 141.147 41.25 137.5 41.25C133.853 41.25 130.356 39.8013 127.777 37.2227C125.199 34.6441 123.75 31.1467 123.75 27.5C123.75 23.8533 125.199 20.3559 127.777 17.7773C130.356 15.1987 133.853 13.75 137.5 13.75C141.147 13.75 144.644 15.1987 147.223 17.7773C149.801 20.3559 151.25 23.8533 151.25 27.5V27.5Z" stroke="#414141" stroke-width="8" stroke-linecap="round" stroke-linejoin="round"/>
<path d="M96.25 27.5C96.25 31.1467 94.8013 34.6441 92.2227 37.2227C89.6441 39.8013 86.1467 41.25 82.5 41.25C78.8533 41.25 75.3559 39.8013 72.7773 37.2227C70.1987 34.6441 68.75 31.1467 68.75 27.5C68.75 23.8533 70.1987 20.3559 72.7773 17.7773C75.3559 15.1987 78.8533 13.75 82.5 13.75C86.1467 13.75 89.6441 15.1987 92.2227 17.7773C94.8013 20.3559 96.25 23.8533 96.25 27.5V27.5Z" stroke="#414141" stroke-width="8" stroke-linecap="round" stroke-linejoin="round"/>
<path d="M41.25 27.5C41.25 31.1467 39.8013 34.6441 37.2227 37.2227C34.6441 39.8013 31.1467 41.25 27.5 41.25C23.8533 41.25 20.3559 39.8013 17.7773 37.2227C15.1987 34.6441 13.75 31.1467 13.75 27.5C13.75 23.8533 15.1987 20.3559 17.7773 17.7773C20.3559 15.1987 23.8533 13.75 27.5 13.75C31.1467 13.75 34.6441 15.1987 37.2227 17.7773C39.8013 20.3559 41.25 23.8533 41.25 27.5V27.5Z" stroke="#414141" stroke-width="8" stroke-linecap="round" stroke-linejoin="round"/>
<path d="M96.25 137.5C96.25 141.147 94.8013 144.644 92.2227 147.223C89.6441 149.801 86.1467 151.25 82.5 151.25C78.8533 151.25 75.3559 149.801 72.7773 147.223C70.1987 144.644 68.75 141.147 68.75 137.5C68.75 133.853 70.1987 130.356 72.7773 127.777C75.3559 125.199 78.8533 123.75 82.5 123.75C86.1467 123.75 89.6441 125.199 92.2227 127.777C94.8013 130.356 96.25 133.853 96.25 137.5V137.5Z" stroke="#414141" stroke-width="8" stroke-linecap="round" stroke-linejoin="round"/>
<path d="M41.25 137.5C41.25 141.147 39.8013 144.644 37.2227 147.223C34.6441 149.801 31.1467 151.25 27.5 151.25C23.8533 151.25 20.3559 149.801 17.7773 147.223C15.1987 144.644 13.75 141.147 13.75 137.5C13.75 133.853 15.1987 130.356 17.7773 127.777C20.3559 125.199 23.8533 123.75 27.5 123.75C31.1467 123.75 34.6441 125.199 37.2227 127.777C39.8013 130.356 41.25 133.853 41.25 137.5V137.5Z" stroke="#414141" stroke-width="8" stroke-linecap="round" stroke-linejoin="round"/>
<path d="M137.5 151.25C145.094 151.25 151.25 145.094 151.25 137.5C151.25 129.906 145.094 123.75 137.5 123.75C129.906 123.75 123.75 129.906 123.75 137.5C123.75 145.094 129.906 151.25 137.5 151.25Z" stroke="#414141" stroke-width="8" stroke-linecap="round" stroke-linejoin="round"/>
</svg>
