<svg width="165" height="165" viewBox="0 0 165 165" fill="none" xmlns="http://www.w3.org/2000/svg">
<path d="M97.4187 94.2563L107.044 77.6187C107.662 76.5875 107.387 75.2813 106.494 74.525L96.3187 66.55C96.525 65.0375 96.6625 63.4563 96.6625 61.875C96.6625 60.2937 96.525 58.7125 96.3187 57.1313L106.494 49.1563C107.387 48.4 107.662 47.0937 107.044 46.0625L97.4187 29.425C96.8 28.3938 95.5625 27.9813 94.4625 28.3938L82.5 33.2062C80.025 31.2812 77.3437 29.7 74.3875 28.4625L72.6 15.7437C72.4846 15.1877 72.1836 14.6874 71.7463 14.3251C71.309 13.9628 70.7615 13.76 70.1937 13.75H50.9437C49.775 13.75 48.7437 14.6437 48.5375 15.8125L46.75 28.5313C43.8625 29.7688 41.1125 31.35 38.6375 33.275L26.675 28.4625C25.575 28.05 24.3375 28.4625 23.7187 29.4937L14.0937 46.1313C13.475 47.1625 13.75 48.4687 14.6437 49.225L24.8187 57.2C24.6125 58.7125 24.475 60.2937 24.475 61.875C24.475 63.4563 24.6125 65.0375 24.8187 66.6187L14.6437 74.5938C13.75 75.35 13.475 76.6563 14.0937 77.6875L23.7187 94.325C24.3375 95.3563 25.575 95.7687 26.675 95.3562L38.6375 90.5438C41.1125 92.4688 43.7937 94.05 46.75 95.2875L48.5375 108.006C48.7437 109.106 49.775 110 50.9437 110H70.1937C71.3625 110 72.3937 109.106 72.6 107.937L74.3875 95.2188C77.275 93.9813 80.025 92.4 82.5 90.475L94.4625 95.2875C95.5625 95.7 96.8 95.2875 97.4187 94.2563V94.2563ZM60.5687 75.625C53.0062 75.625 46.8187 69.4375 46.8187 61.875C46.8187 54.3125 53.0062 48.125 60.5687 48.125C68.1312 48.125 74.3187 54.3125 74.3187 61.875C74.3187 69.4375 68.1312 75.625 60.5687 75.625ZM150.7 128.356L144.1 123.269C144.237 122.306 144.375 121.275 144.375 120.244C144.375 119.212 144.306 118.181 144.1 117.219L150.631 112.131C151.181 111.65 151.387 110.825 150.975 110.138L144.787 99.4813C144.444 98.7938 143.619 98.5875 142.863 98.7937L135.231 101.887C133.65 100.65 131.931 99.6188 130.006 98.8625L128.837 90.75C128.81 90.3825 128.647 90.0383 128.381 89.7842C128.114 89.5301 127.762 89.3842 127.394 89.375H115.087C114.331 89.375 113.644 89.925 113.575 90.6812L112.406 98.7937C110.55 99.6187 108.762 100.581 107.181 101.819L99.55 98.725C99.1997 98.5932 98.814 98.59 98.4615 98.7159C98.109 98.8418 97.8126 99.0886 97.625 99.4125L91.4375 110.069C91.0937 110.756 91.1625 111.581 91.7812 112.062L98.3125 117.15C98.029 119.157 98.029 121.193 98.3125 123.2L91.7812 128.287C91.2312 128.769 91.025 129.594 91.4375 130.281L97.625 140.938C97.9687 141.625 98.7937 141.831 99.55 141.625L107.181 138.531C108.762 139.769 110.481 140.8 112.406 141.556L113.575 149.669C113.712 150.425 114.331 150.975 115.087 150.975H127.394C128.15 150.975 128.837 150.425 128.906 149.669L130.075 141.556C131.931 140.731 133.719 139.769 135.231 138.531L142.931 141.625C143.619 141.9 144.444 141.625 144.856 140.938L151.044 130.281C151.456 129.663 151.25 128.838 150.7 128.356V128.356ZM121.206 129.456C118.744 129.455 116.383 128.476 114.642 126.734C112.901 124.993 111.924 122.631 111.925 120.168C111.926 117.706 112.905 115.344 114.647 113.604C116.389 111.863 118.751 110.886 121.213 110.887C123.676 110.888 126.037 111.867 127.777 113.609C129.518 115.351 130.495 117.713 130.494 120.175C130.493 122.637 129.514 124.999 127.773 126.739C126.031 128.48 123.669 129.457 121.206 129.456V129.456Z" fill="#414141"/>
</svg>
