<svg width="165" height="165" viewBox="0 0 165 165" fill="none" xmlns="http://www.w3.org/2000/svg">
<path fill-rule="evenodd" clip-rule="evenodd" d="M51.5625 118.594C51.5625 117.226 52.1058 115.915 53.0727 114.948C54.0397 113.981 55.3512 113.437 56.7188 113.437H149.531C150.899 113.437 152.21 113.981 153.177 114.948C154.144 115.915 154.688 117.226 154.688 118.594C154.688 119.961 154.144 121.273 153.177 122.24C152.21 123.207 150.899 123.75 149.531 123.75H56.7188C55.3512 123.75 54.0397 123.207 53.0727 122.24C52.1058 121.273 51.5625 119.961 51.5625 118.594ZM51.5625 77.3437C51.5625 75.9762 52.1058 74.6647 53.0727 73.6977C54.0397 72.7307 55.3512 72.1875 56.7188 72.1875H149.531C150.899 72.1875 152.21 72.7307 153.177 73.6977C154.144 74.6647 154.688 75.9762 154.688 77.3437C154.688 78.7113 154.144 80.0228 153.177 80.9898C152.21 81.9568 150.899 82.5 149.531 82.5H56.7188C55.3512 82.5 54.0397 81.9568 53.0727 80.9898C52.1058 80.0228 51.5625 78.7113 51.5625 77.3437ZM51.5625 36.0937C51.5625 34.7262 52.1058 33.4147 53.0727 32.4477C54.0397 31.4807 55.3512 30.9375 56.7188 30.9375H149.531C150.899 30.9375 152.21 31.4807 153.177 32.4477C154.144 33.4147 154.688 34.7262 154.688 36.0937C154.688 37.4613 154.144 38.7728 153.177 39.7398C152.21 40.7068 150.899 41.25 149.531 41.25H56.7188C55.3512 41.25 54.0397 40.7068 53.0727 39.7398C52.1058 38.7728 51.5625 37.4613 51.5625 36.0937ZM39.7444 22.1306C40.2246 22.6096 40.6055 23.1786 40.8655 23.805C41.1254 24.4315 41.2592 25.103 41.2592 25.7812C41.2592 26.4595 41.1254 27.131 40.8655 27.7575C40.6055 28.3839 40.2246 28.9529 39.7444 29.4319L24.2756 44.9006C23.7967 45.3808 23.2277 45.7618 22.6012 46.0217C21.9748 46.2817 21.3032 46.4155 20.625 46.4155C19.9468 46.4155 19.2752 46.2817 18.6488 46.0217C18.0224 45.7618 17.4534 45.3808 16.9744 44.9006L11.8181 39.7444C11.3387 39.265 10.9584 38.6958 10.699 38.0695C10.4395 37.4431 10.306 36.7717 10.306 36.0937C10.306 35.4158 10.4395 34.7444 10.699 34.118C10.9584 33.4917 11.3387 32.9225 11.8181 32.4431C12.2975 31.9637 12.8667 31.5834 13.4931 31.324C14.1194 31.0645 14.7908 30.931 15.4688 30.931C16.1467 30.931 16.8181 31.0645 17.4445 31.324C18.0708 31.5834 18.64 31.9637 19.1194 32.4431L20.625 33.9591L32.4431 22.1306C32.9221 21.6504 33.4911 21.2695 34.1175 21.0095C34.744 20.7496 35.4155 20.6158 36.0938 20.6158C36.772 20.6158 37.4436 20.7496 38.07 21.0095C38.6964 21.2695 39.2654 21.6504 39.7444 22.1306V22.1306ZM39.7444 63.3806C40.2246 63.8596 40.6055 64.4286 40.8655 65.055C41.1254 65.6815 41.2592 66.353 41.2592 67.0312C41.2592 67.7095 41.1254 68.381 40.8655 69.0075C40.6055 69.6339 40.2246 70.2029 39.7444 70.6819L24.2756 86.1506C23.7967 86.6308 23.2277 87.0118 22.6012 87.2717C21.9748 87.5317 21.3032 87.6655 20.625 87.6655C19.9468 87.6655 19.2752 87.5317 18.6488 87.2717C18.0224 87.0118 17.4534 86.6308 16.9744 86.1506L11.8181 80.9944C10.8499 80.0262 10.306 78.713 10.306 77.3437C10.306 75.9745 10.8499 74.6613 11.8181 73.6931C12.7863 72.7249 14.0995 72.181 15.4688 72.181C16.838 72.181 18.1512 72.7249 19.1194 73.6931L20.625 75.2091L32.4431 63.3806C32.9221 62.9004 33.4911 62.5195 34.1175 62.2595C34.744 61.9996 35.4155 61.8658 36.0938 61.8658C36.772 61.8658 37.4436 61.9996 38.07 62.2595C38.6964 62.5195 39.2654 62.9004 39.7444 63.3806V63.3806ZM39.7444 104.631C40.2246 105.11 40.6055 105.679 40.8655 106.305C41.1254 106.931 41.2592 107.603 41.2592 108.281C41.2592 108.959 41.1254 109.631 40.8655 110.257C40.6055 110.884 40.2246 111.453 39.7444 111.932L24.2756 127.401C23.7967 127.881 23.2277 128.262 22.6012 128.522C21.9748 128.782 21.3032 128.915 20.625 128.915C19.9468 128.915 19.2752 128.782 18.6488 128.522C18.0224 128.262 17.4534 127.881 16.9744 127.401L11.8181 122.244C10.8499 121.276 10.306 119.963 10.306 118.594C10.306 117.224 10.8499 115.911 11.8181 114.943C12.7863 113.975 14.0995 113.431 15.4688 113.431C16.838 113.431 18.1512 113.975 19.1194 114.943L20.625 116.459L32.4431 104.631C32.9221 104.15 33.4911 103.769 34.1175 103.51C34.744 103.25 35.4155 103.116 36.0938 103.116C36.772 103.116 37.4436 103.25 38.07 103.51C38.6964 103.769 39.2654 104.15 39.7444 104.631V104.631Z" fill="#414141"/>
</svg>
