<svg width="173" height="167" viewBox="0 0 173 167" fill="none" xmlns="http://www.w3.org/2000/svg">
<path d="M154.612 35.1749C155.348 36.9429 148.236 47.4112 140.163 56.7245C137.397 59.9932 137.281 60.1194 134.198 58.5904C129.928 56.3992 131.633 52.9435 141.82 43.5233C153.046 32.9675 153.627 32.5771 154.612 35.1749Z" fill="#414141"/>
<path d="M114.944 61.0056C124.514 65.0823 127.123 66.7504 127.155 68.6682C127.223 72.6236 124.413 72.8851 112.862 69.5081C106.85 67.7714 101.08 66.3825 100.142 66.4297C98.033 66.536 84.0087 83.0778 84.0478 85.3551C84.0622 86.1942 85.2669 88.0529 86.6998 89.5403L89.2079 92.1732L86.9096 94.9282C85.6474 96.5513 77.264 106.931 68.192 118.184C59.2371 129.432 51.0737 138.961 50.1425 139.368C49.2112 139.774 46.9663 138.808 45.1777 137.098C43.3912 135.509 41.3744 134.171 40.7885 134.2C40.2026 134.23 37.0861 137.146 33.9777 140.542L28.3388 146.824L22.6174 141.474L17.0132 136.118L22.648 129.596C25.8694 125.954 28.3898 122.468 28.3795 121.869C28.3692 121.27 27.0514 119.657 25.3841 118.181C23.7168 116.706 22.3908 114.613 22.3723 113.534C22.3537 112.455 26.7243 107.437 32.1494 102.365C37.5725 97.1732 41.9513 92.6339 41.941 92.0346C41.8813 88.5586 35.6174 92.593 24.1894 103.246C16.3384 110.479 10.2061 115.347 8.68273 115.423C5.40168 115.589 1.79983 110.731 3.16072 108.024C4.18035 105.933 29.1127 82.6036 32.3628 80.6404C35.4979 78.803 41.1267 78.7594 46.0832 80.5492C52.1027 82.7653 52.8037 82.61 59.2629 76.2864C62.4925 73.1246 65.498 70.5739 66.0839 70.5444C66.5526 70.5208 67.9773 71.5287 69.1718 72.7882C70.3662 74.0477 71.9081 75.0497 72.6112 75.0143C73.3142 74.9789 77.8225 71.1529 82.5528 66.5959C95.9359 53.6853 97.5723 53.363 114.944 61.0056ZM50.5324 100.599L37.4968 113.252L43.2202 118.722L48.8265 124.198L54.2249 117.568C57.3311 114.053 59.7343 110.573 59.8412 109.968C59.8288 109.248 58.6282 107.629 57.1953 106.142C55.1662 104.085 54.9154 103.138 55.9515 102.006C56.9876 100.874 58.1635 101.055 60.7764 102.962C63.6238 104.858 64.4481 105.057 65.4801 103.685C66.397 102.439 66.1462 101.492 64.3617 100.023C61.7426 97.7553 61.1052 94.7883 63.3316 94.6761C64.0347 94.6407 65.6897 95.3971 66.882 96.5367C68.905 98.2343 69.1393 98.2225 71.3308 96.0727C73.6353 93.6773 73.6353 93.6773 69.9368 90.0247C67.7905 87.9734 65.5394 86.6472 64.8425 87.0422C64.1477 87.5571 57.6844 93.6409 50.5324 100.599Z" fill="#414141"/>
<path d="M167.808 62.1259C169.25 64.3157 167.049 65.3754 154.017 68.5131C140.055 71.9342 137.711 71.5733 138.309 65.9521L138.603 62.8444L152.842 61.7891C162.296 61.0875 167.323 61.1978 167.808 62.1259Z" fill="#414141"/>
<path d="M151.017 83.4075C160.179 90.7511 163.066 94.8087 159.43 94.9921C158.727 95.0276 152.931 92.4378 146.774 89.2658C136.589 83.8953 135.517 82.9886 135.464 79.869C135.414 76.9893 135.988 76.2398 138.33 75.8815C140.554 75.5291 143.755 77.4091 151.017 83.4075Z" fill="#414141"/>
<path d="M118.664 83.9131C121.185 86.3213 120.407 89.1365 114.227 100.431C107.702 112.225 106.429 113.738 104.628 112.018C103.308 110.756 111.131 85.257 113.347 83.6973C115.33 82.27 116.983 82.3076 118.664 83.9131Z" fill="#414141"/>
<path d="M131.401 84.0997C133.436 85.328 138.406 111.914 136.896 113.561C136.199 114.321 135.371 114.362 134.65 113.793C132.841 111.95 124.652 90.8419 124.597 87.702C124.533 84.079 128.171 82.2057 131.401 84.0997Z" fill="#414141"/>
</svg>
