<svg width="165" height="165" viewBox="0 0 165 165" fill="none" xmlns="http://www.w3.org/2000/svg">
<path d="M93.2775 116.009L90.1703 119.117L89.4632 119.824L88.7561 119.117L49.8683 80.2287L49.1612 79.5217L49.8683 78.8145L52.9755 75.7069L53.6654 76.3968L52.9756 75.7069C54.0291 74.6534 55.4349 74.0711 56.925 74.0711C58.4148 74.0711 59.8209 74.6534 60.8744 75.7069L60.1673 76.414L60.8745 75.7069L64.6131 79.4459M93.2775 116.009L64.6131 79.4459M93.2775 116.009C95.456 113.831 95.4561 110.289 93.2775 108.111L89.5374 104.371L64.6415 79.475C64.6282 79.4605 64.6186 79.4513 64.6147 79.4474L64.6131 79.4459M93.2775 116.009L64.6131 79.4459M129.084 21.8662L129.733 22.2033L130.251 21.6856L143.427 8.50979L142.72 7.80269L143.427 8.50975C148.139 3.79764 155.764 3.79848 160.475 8.50977L161.128 7.85681L160.475 8.50982C165.175 13.2095 165.175 20.8584 160.474 25.5574L160.474 25.5575L147.295 38.7356L146.779 39.2522L147.114 39.9015C149.7 44.9119 148.895 51.2305 144.704 55.4216L99.5723 100.554L98.8701 101.256L99.5674 101.963C105.102 107.576 105.08 116.646 99.4975 122.228L100.205 122.935L99.4975 122.228L92.5731 129.153C92.5731 129.153 92.573 129.153 92.573 129.153C91.7478 129.978 90.6292 130.442 89.4626 130.442C88.2964 130.442 87.1776 129.978 86.3527 129.153L81.1846 123.985L79.5904 125.154C80.2945 126.506 80.2781 128.179 79.4049 129.55C78.5668 130.866 77.1462 131.587 75.6899 131.587C74.8822 131.587 74.066 131.365 73.3322 130.898L72.795 131.741L73.3321 130.898L71.5023 129.732L70.8255 129.301L70.258 129.869L66.7131 133.414L65.868 134.259L66.849 134.942C68.7755 136.283 69.3188 138.912 68.048 140.907C67.2098 142.223 65.7892 142.944 64.3329 142.944C63.5252 142.944 62.709 142.722 61.9752 142.255L61.438 143.098L61.9752 142.255L60.1453 141.089L59.4685 140.658L58.9011 141.226L55.8077 144.319L56.5148 145.026L55.8076 144.319C53.2933 146.834 49.9554 148.216 46.3995 148.216C43.7657 148.216 41.2543 147.456 39.1081 146.044L38.6744 145.758L38.1915 145.949C36.8298 146.486 35.3661 146.77 33.8559 146.77C30.7003 146.77 27.7391 145.544 25.5077 143.312C23.2763 141.081 22.0497 138.119 22.0497 134.964C22.0497 133.433 22.3408 131.95 22.8918 130.573L23.0817 130.099L22.8083 129.667C22.7785 129.62 22.7543 129.582 22.7332 129.55C22.6985 129.496 22.6718 129.454 22.6409 129.403L21.9832 128.299L21.0748 129.208L11.6908 138.592L11.6906 138.592C10.4714 139.812 9.79719 141.439 9.79719 143.164C9.79719 144.889 10.471 146.516 11.6908 147.736L16.4699 152.515C18.1877 154.233 18.1877 157.018 16.47 158.735L17.1771 159.443L16.4699 158.735C14.7522 160.453 11.9672 160.453 10.2498 158.735L9.54261 159.443L10.2497 158.735L5.47052 153.956C2.58651 151.072 1 147.243 1 143.164C1 139.085 2.58651 135.256 5.47105 132.372L5.47117 132.372L20.5384 117.304L21.4364 116.406L20.3528 115.744L20.3495 115.742C18.3063 114.435 17.7064 111.72 19.0099 109.674L19.0099 109.674C20.3149 107.625 23.0337 107.022 25.0825 108.327L25.6198 107.484L25.0825 108.327L27.1138 109.621L27.7907 110.052L28.3581 109.485L31.895 105.948L32.7931 105.05L31.7094 104.387L31.7059 104.385C29.6629 103.078 29.0631 100.364 30.3665 98.3174L30.3666 98.3174C31.6715 96.268 34.3903 95.6652 36.4391 96.9704L36.9592 96.154L36.4392 96.9704L38.4704 98.2643L39.1473 98.6955L39.7148 98.128L46.8133 91.0295L47.5204 90.3224L46.8133 89.6152L39.8305 82.6324C38.1131 80.9147 38.113 78.1299 39.8305 76.4121C39.8305 76.4121 39.8305 76.4121 39.8305 76.4121L46.7553 69.4873C49.4733 66.7693 53.0813 65.2749 56.925 65.2749C60.7343 65.2749 64.3113 66.7445 67.021 69.4168L67.7281 70.1141L68.4303 69.4119L113.562 24.2802L112.855 23.5731L113.562 24.2802C117.831 20.0109 124.16 19.3125 129.084 21.8662ZM49.5877 138.1L49.5878 138.1L50.988 136.699L51.869 135.818L50.8181 135.149L31.2295 122.672L29.0442 121.28L29.7277 123.78C29.9314 124.524 30.3227 125.209 30.8825 125.771L30.8833 125.771L43.2135 138.102L43.2139 138.102C44.0637 138.951 45.1981 139.42 46.3995 139.42C47.6016 139.42 48.7374 138.95 49.5877 138.1ZM57.5641 129.016L58.2409 129.447L58.8084 128.879L62.3452 125.342L63.2264 124.461L62.1753 123.792L41.0524 110.338L40.3756 109.907L39.8081 110.475L36.2713 114.011L35.3901 114.893L36.4412 115.562L57.5641 129.016ZM68.9207 117.659L69.5976 118.09L70.1651 117.522L71.729 115.958L72.436 115.251L71.729 114.544L54.441 97.2558L53.7339 96.5487L53.0268 97.2558L47.6282 102.654L46.7471 103.536L47.7981 104.205L68.9207 117.659ZM91.9404 94.3327L92.6475 95.0398L93.3546 94.3327L138.485 49.2029C140.243 47.4446 140.243 44.5855 138.485 42.8274C138.132 42.4737 126.485 30.8264 126.159 30.5004L126.159 30.5004C124.397 28.7388 121.544 28.7386 119.782 30.5004L74.6525 75.6305L73.9454 76.3376L74.6525 77.0447L91.9404 94.3327ZM140.139 32.0394L140.846 32.7465L141.553 32.0394L154.255 19.3377C154.255 19.3377 154.255 19.3376 154.255 19.3376C155.526 18.0668 155.526 16.0009 154.255 14.7299L154.255 14.7296C152.981 13.4564 150.918 13.459 149.647 14.7296L149.647 14.7297L136.945 27.4318L136.238 28.1389L136.945 28.846L140.139 32.0394Z" fill="#414141" stroke="white" stroke-width="2"/>
</svg>
