<svg width="165" height="165" viewBox="0 0 165 165" fill="none" xmlns="http://www.w3.org/2000/svg">
<path d="M115.409 49.5898L115.41 49.5903C123.829 58.0094 129.045 69.6503 129.045 82.5C129.045 95.3503 123.84 106.991 115.41 115.409L115.41 115.41C106.991 123.829 95.3497 129.045 82.5 129.045C69.6497 129.045 58.0092 123.841 49.5907 115.41L49.5902 115.41C41.1711 106.991 35.9549 95.3497 35.9549 82.5C35.9549 69.6498 41.1595 58.0092 49.5897 49.5907L49.5902 49.5903C58.0094 41.1711 69.6503 35.955 82.5 35.955C95.3503 35.955 106.991 41.1595 115.409 49.5898ZM133.817 31.1827L133.817 31.183C146.955 44.3207 155.081 62.4646 155.081 82.5C155.081 102.548 146.955 120.691 133.817 133.817L133.817 133.817C120.679 146.955 102.535 155.081 82.5 155.081C62.4525 155.081 44.3087 146.955 31.1833 133.817L31.1827 133.817C18.0454 120.691 9.91891 102.548 9.91891 82.5C9.91891 62.4525 18.0454 44.3088 31.1827 31.1833L31.1833 31.1827C44.3087 18.0454 62.4525 9.91895 82.5 9.91895C102.548 9.91895 120.691 18.0454 133.817 31.1827ZM88.013 76.2035L88.0095 76.2001C86.6061 74.7966 84.6653 73.9311 82.5 73.9311C80.3477 73.9311 78.3947 74.7959 76.9906 76.2C76.9906 76.2 76.9905 76.2 76.9905 76.2001L76.9786 76.2119L76.9785 76.2121C75.575 77.6155 74.7096 79.5563 74.7096 81.7216C74.7096 83.874 75.5744 85.827 76.9785 87.2311L76.9788 87.2314L76.9905 87.2431C76.9906 87.2432 76.9907 87.2432 76.9907 87.2433C78.3942 88.6466 80.3348 89.512 82.5 89.512C84.6523 89.512 86.6051 88.6473 88.0092 87.2433C88.0093 87.2432 88.0094 87.2432 88.0095 87.2431L88.0212 87.2314L88.0215 87.2311C89.4256 85.827 90.2904 83.874 90.2905 81.7216L90.2904 81.7152C90.2767 79.5536 89.4126 77.6169 88.013 76.2035ZM85.8415 69.6351L85.7549 70.4139L86.4905 70.6842C88.116 71.2813 89.5849 72.2207 90.7869 73.4227C91.1987 73.8345 91.5815 74.273 91.9164 74.7375L92.3329 75.3152L93.015 75.1105L93.1205 75.0788L118.28 68.3402L119.392 68.0422L118.941 66.9826C116.939 62.2769 114.051 58.0383 110.489 54.4874C104.31 48.3089 96.09 44.1548 86.9341 43.1348L85.8234 43.011V44.1286V69.4221V69.5319L85.8429 69.6196C85.8426 69.6234 85.8422 69.6285 85.8415 69.6351ZM85.8472 69.6391C85.8469 69.6379 85.8466 69.6367 85.8464 69.6356L85.8472 69.6391ZM94.9359 81.7616L94.2548 81.9441L94.1979 82.6469C94.0433 84.5575 93.4364 86.344 92.4661 87.8987L92.083 88.5125L92.5424 89.0639C92.5438 89.0659 92.5465 89.0699 92.5505 89.0763C92.5626 89.0955 92.576 89.1187 92.6018 89.1638L92.6127 89.1828L92.6244 89.2013L107.079 112.112L107.702 113.098L108.582 112.332C109.248 111.752 109.888 111.149 110.513 110.525C117.675 103.362 122.111 93.4463 122.111 82.512C122.111 80.2151 121.914 77.9664 121.533 75.7665L121.347 74.688L120.289 74.9712L94.9359 81.7616ZM87.0943 93.3557L86.6838 92.7051L85.9497 92.935C84.8635 93.2751 83.7069 93.4522 82.5 93.4522C81.4154 93.4522 80.3668 93.3084 79.3637 93.0328L78.6402 92.834L78.247 93.4731L64.1392 116.407L63.5718 117.33L64.5364 117.822C69.9317 120.575 76.0392 122.123 82.5 122.123C89.207 122.123 95.523 120.452 101.064 117.515L102.017 117.01L101.442 116.098L87.0943 93.3557ZM72.7252 89.2576L73.0674 88.7101L72.7093 88.1729C71.6951 86.6517 71.0341 84.8776 70.8358 82.9828L70.7421 82.0869H69.9821L44.8704 74.2283L43.8009 73.8936L43.5896 74.9942C43.1228 77.4267 42.8771 79.933 42.8771 82.5C42.8771 93.4343 47.3133 103.35 54.4754 110.513C55.2486 111.286 56.0602 112.036 56.9104 112.751L57.7982 113.497L58.4056 112.509L72.5029 89.583C72.5971 89.4631 72.6707 89.345 72.7161 89.2722L72.7252 89.2576ZM71.7587 75.4066L72.4538 75.6238L72.8738 75.0288C73.2784 74.4556 73.7189 73.9179 74.2051 73.4426L74.2097 73.438C75.3724 72.2864 76.7653 71.3697 78.309 70.7743L79.0133 70.5026L78.945 69.7508C78.9328 69.6171 78.9251 69.515 78.9251 69.4341V44.1646V43.0398L77.8081 43.1714C68.7393 44.2405 60.6049 48.3696 54.4867 54.5001C51.109 57.878 48.3328 61.8703 46.3424 66.2932L45.8796 67.3217L46.9562 67.6581L71.7587 75.4066ZM121.567 43.4335C111.566 33.4333 97.7581 27.2483 82.5 27.2483C67.2419 27.2483 53.4337 33.4333 43.4335 43.4335C33.4333 53.4337 27.2483 67.2419 27.2483 82.5C27.2483 97.7581 33.4333 111.566 43.4335 121.567C53.4337 131.567 67.2419 137.752 82.5 137.752C97.7581 137.752 111.566 131.567 121.567 121.567C131.567 111.566 137.752 97.7581 137.752 82.5C137.752 67.2419 131.567 53.4337 121.567 43.4335Z" fill="#414141" stroke="white" stroke-width="2"/>
</svg>
