<svg width="165" height="172" viewBox="0 0 165 172" fill="none" xmlns="http://www.w3.org/2000/svg">
<path d="M103.723 23.4553L104.199 22.5758L103.723 23.4553C114.005 29.0188 130.246 36.0733 149.163 38.0161L153.181 38.4288L153.353 42.4648C153.388 43.2825 154.171 64.0505 146.171 89.2007C141.453 104.033 134.644 117.308 125.941 128.665L126.735 129.274L125.941 128.665C115.016 142.923 101.081 154.163 84.5131 162.075L84.944 162.978L84.513 162.075L82.4998 163.037L80.4867 162.075L80.0557 162.978L80.4866 162.075C63.919 154.163 49.9839 142.923 39.0585 128.665C30.3558 117.308 23.5472 104.033 18.8293 89.2005L17.8807 89.5022L18.8293 89.2005C10.8291 64.0502 11.6121 43.2821 11.6468 42.4646L11.8184 38.4286L15.837 38.0159C34.7543 36.0731 50.9949 29.0186 61.2765 23.4552C72.5415 17.3596 79.3802 11.6359 79.4825 11.5497L79.4831 11.5492L82.5029 9.00295L85.5209 11.553L85.522 11.5539C85.6195 11.6361 92.4583 17.3596 103.723 23.4553ZM82.0468 152.429L82.4998 152.659L82.9529 152.429C97.089 145.245 109.049 135.348 118.525 122.983C126.58 112.47 132.883 100.148 137.266 86.3689C142.57 69.6951 143.753 54.9679 143.989 47.695L144.017 46.8043L143.136 46.6735C135.681 45.5669 128.14 43.7041 120.652 41.1143C113.332 38.583 106.044 35.3547 98.9911 31.5182L98.5733 32.2863L98.9911 31.5182C91.834 27.6254 86.3904 23.9085 83.0921 21.483L82.4996 21.0474L81.9072 21.483C78.6089 23.9086 73.1655 27.6254 66.0084 31.5182L66.4686 32.3642L66.0084 31.5182C58.9553 35.3546 51.6672 38.583 44.348 41.1143C36.8613 43.7033 29.3225 45.566 21.8698 46.6726L20.9876 46.8036L21.0173 47.695C21.2617 55.0385 22.468 69.9758 27.8485 86.7307L28.8006 86.4249L27.8485 86.7307C32.2521 100.443 38.5624 112.703 46.6127 123.162C56.0658 135.444 67.979 145.28 82.0468 152.429Z" fill="#414141" stroke="white" stroke-width="2"/>
<path d="M106.208 68.7381L113.414 61.5317L120.021 68.1386L76.0075 112.152L52.4209 88.5655L55.7243 85.262L56.0172 84.9691V84.9689L59.0276 81.9585L60.3531 83.284L75.3004 98.2313L76.0075 98.9384L76.7146 98.2313L106.208 68.7381Z" fill="#414141" stroke="white" stroke-width="2"/>
</svg>
